# xmcd CD database file
#
# Track frame offsets:
#	150
#	20335
#	34887
#	50830
#	72710
#	89522
#	102277
#	118710
#	134100
#	157645
#
# Disc length: 2296 seconds
#
# Revision: 3
# Processed by: cddbd v1.5.1PL2 Copyright (c) Steve Scherf et al.
# Submitted via: CDex 1.51
#
DISCID=8e08f60a
DTITLE=William Dunker - Trop Tchaud
DYEAR=1997
DGENRE=Blues
TTITLE0=Trop Tchaud (Awouss')
TTITLE1=Toudis su'l voye
TTITLE2=El Bouneur est rale
TTITLE3=Black country blues
TTITLE4=Come in solia padri les breunes
TTITLE5=Baby blues
TTITLE6=Just like after the ribote blues
TTITLE7=El mambo del loke a rlokter
TTITLE8=Djan Pinson
TTITLE9=Hey!
EXTD=YEAR: 1997
EXTT0=
EXTT1=
EXTT2=
EXTT3=
EXTT4=
EXTT5=
EXTT6=
EXTT7=
EXTT8=
EXTT9=
PLAYORDER=
